<svg width="24" height="24" viewBox="0 0 24 24" fill="none" xmlns="http://www.w3.org/2000/svg">
<path fill-rule="evenodd" clip-rule="evenodd" d="M12 24C18.6274 24 24 18.6274 24 12C24 5.37256 18.6274 0 12 0C5.37256 0 0 5.37256 0 12C0 18.6274 5.37256 24 12 24ZM13.2901 7.458C13.0203 7.18816 12.6543 7.03658 12.2727 7.03658C11.8911 7.03658 11.5252 7.18816 11.2554 7.458C10.9856 7.72778 10.834 8.09373 10.834 8.47533C10.834 8.85687 10.9856 9.22287 11.2554 9.49265C11.5252 9.76249 11.8911 9.91407 12.2727 9.91407C12.6543 9.91407 13.0203 9.76249 13.2901 9.49265C13.5599 9.22287 13.7115 8.85687 13.7115 8.47533C13.7115 8.09373 13.5599 7.72778 13.2901 7.458ZM15.7415 8.47533C15.7415 10.3871 14.1884 11.9441 12.2727 11.9441C10.361 11.9441 8.80396 10.3871 8.80396 8.47533C8.80396 6.56356 10.361 5.00656 12.2727 5.00656C14.1845 5.00656 15.7415 6.56356 15.7415 8.47533ZM15.6863 13.9504C15.0675 14.3373 14.3878 14.6171 13.676 14.7782L13.6642 14.7742L15.6075 16.7175C15.7019 16.812 15.7769 16.9241 15.8281 17.0476C15.8793 17.171 15.9056 17.3033 15.9056 17.4369C15.9056 17.5705 15.8793 17.7028 15.8281 17.8263C15.7769 17.9497 15.7019 18.0619 15.6075 18.1563C15.513 18.2508 15.4009 18.3258 15.2774 18.3769C15.154 18.4281 15.0217 18.4544 14.8881 18.4544C14.7545 18.4544 14.6222 18.4281 14.4987 18.3769C14.3753 18.3258 14.2631 18.2508 14.1687 18.1563L12.2609 16.2485L10.3531 18.1603C10.1623 18.351 9.90355 18.4582 9.63371 18.4582C9.36393 18.4582 9.10516 18.351 8.91436 18.1603C8.72356 17.9695 8.61638 17.7107 8.61638 17.4409C8.61638 17.171 8.72356 16.9123 8.91436 16.7215L10.8458 14.7782C10.1363 14.6205 9.46227 14.3446 8.83549 13.9504C8.72269 13.879 8.625 13.786 8.54809 13.6768C8.47113 13.5677 8.41647 13.4444 8.38718 13.3141C8.35795 13.1838 8.35462 13.049 8.37742 12.9174C8.40022 12.7858 8.44871 12.66 8.52016 12.5471C8.59162 12.4343 8.68456 12.3367 8.79376 12.2597C8.90291 12.1828 9.02618 12.1281 9.15649 12.0988C9.2868 12.0695 9.42158 12.0662 9.5532 12.0891C9.68476 12.1119 9.8106 12.1604 9.92346 12.2318C10.6244 12.6699 11.4343 12.9021 12.2609 12.9021C13.0875 12.9021 13.8974 12.6699 14.5984 12.2318C14.7112 12.1604 14.837 12.1119 14.9686 12.0891C15.1002 12.0662 15.235 12.0695 15.3653 12.0988C15.4956 12.1281 15.6189 12.1828 15.7281 12.2597C15.8372 12.3367 15.9302 12.4343 16.0016 12.5471C16.0731 12.66 16.1216 12.7858 16.1444 12.9174C16.1672 13.049 16.1639 13.1838 16.1346 13.3141C16.1053 13.4444 16.0507 13.5677 15.9737 13.6768C15.8968 13.786 15.7991 13.879 15.6863 13.9504Z" fill="url(#paint0_linear_240511_11)"/>
<defs>
<linearGradient id="paint0_linear_240511_11" x1="12" y1="0" x2="12" y2="24" gradientUnits="userSpaceOnUse">
<stop stop-color="#BC9CFF"/>
<stop offset="1" stop-color="#8BA4F9"/>
</linearGradient>
</defs>
</svg>
