<svg width="24" height="25" viewBox="0 0 24 25" fill="none" xmlns="http://www.w3.org/2000/svg">
<path d="M12 0C5.37096 0 0 5.3795 0 12.0191C0 18.6586 5.37096 24.0382 12 24.0382C18.629 24.0382 24 18.6586 24 12.0191C24 5.3795 18.629 0 12 0ZM17.8935 8.23403L15.9242 17.5294C15.779 18.1885 15.3871 18.3484 14.8403 18.0383L11.8403 15.8235L10.3935 17.2193C10.2339 17.3792 10.0984 17.5149 9.7887 17.5149L10.0016 14.4568L15.5613 9.42626C15.8032 9.21299 15.5081 9.09185 15.1887 9.30509L8.31775 13.6378L5.35643 12.7121C4.71291 12.5086 4.69839 12.0675 5.49193 11.7574L17.0613 7.28896C17.5984 7.09513 18.0677 7.41982 17.8935 8.23403Z" fill="url(#paint0_linear_240511_9)"/>
<defs>
<linearGradient id="paint0_linear_240511_9" x1="12" y1="0" x2="12" y2="24.0382" gradientUnits="userSpaceOnUse">
<stop stop-color="#BC9CFF"/>
<stop offset="1" stop-color="#8BA4F9"/>
</linearGradient>
</defs>
</svg>
