<svg width="24" height="24" viewBox="0 0 24 24" fill="none" xmlns="http://www.w3.org/2000/svg">
<path d="M12 0C5.37279 0 0 5.37258 0 12C0 18.6274 5.37279 24 12 24C18.6272 24 24 18.6274 24 12C24 5.37258 18.6272 0 12 0ZM18.087 13.2978C18.6464 13.8441 19.2381 14.3583 19.7402 14.961C19.9626 15.2277 20.1723 15.5034 20.3319 15.8135C20.5597 16.2557 20.354 16.7406 19.9582 16.7668L17.4998 16.7664C16.8648 16.8189 16.3595 16.5628 15.9335 16.1288C15.5935 15.7828 15.278 15.4133 14.9505 15.0555C14.8167 14.9087 14.6757 14.7705 14.5078 14.6617C14.1726 14.4437 13.8814 14.5105 13.6894 14.8606C13.4937 15.2169 13.4491 15.6117 13.4304 16.0082C13.4037 16.5879 13.2289 16.7394 12.6472 16.7666C11.4044 16.8248 10.2251 16.6362 9.12909 16.0096C8.16219 15.457 7.41388 14.6769 6.76171 13.7938C5.4919 12.0722 4.51938 10.1826 3.64554 8.23884C3.44889 7.80103 3.59275 7.56684 4.07569 7.55774C4.87809 7.54229 5.68048 7.54421 6.4828 7.55699C6.80937 7.56212 7.02544 7.74899 7.15091 8.05709C7.58448 9.1239 8.11603 10.1389 8.78215 11.0803C8.95966 11.3309 9.14086 11.5809 9.39891 11.7579C9.68369 11.9534 9.90079 11.8888 10.0351 11.5708C10.121 11.3688 10.1581 11.1527 10.1768 10.9361C10.2405 10.1944 10.2482 9.45292 10.1377 8.71412C10.0689 8.25183 9.80896 7.9533 9.3481 7.86585C9.11337 7.8214 9.14776 7.7345 9.26188 7.60048C9.46003 7.36868 9.64568 7.2253 10.0167 7.2253L12.7943 7.22482C13.2321 7.3107 13.3303 7.50715 13.3897 7.9481L13.3921 11.0349C13.3869 11.2055 13.4778 11.7112 13.7842 11.823C14.0297 11.904 14.1918 11.7071 14.3386 11.5517C15.0047 10.8448 15.4793 10.0105 15.9043 9.14701C16.0919 8.76622 16.2537 8.3721 16.4109 7.9773C16.5277 7.6854 16.7094 7.54174 17.0389 7.54667L19.7136 7.54988C19.7925 7.54988 19.8725 7.55063 19.9506 7.5641C20.4014 7.64123 20.5249 7.83515 20.3854 8.27487C20.1659 8.96581 19.7394 9.54133 19.3225 10.1183C18.8757 10.7361 18.3991 11.3322 17.9567 11.9526C17.5501 12.5198 17.5822 12.8053 18.087 13.2978Z" fill="url(#paint0_linear_240511_13)"/>
<defs>
<linearGradient id="paint0_linear_240511_13" x1="12" y1="0" x2="12" y2="24" gradientUnits="userSpaceOnUse">
<stop stop-color="#BC9CFF"/>
<stop offset="1" stop-color="#8BA4F9"/>
</linearGradient>
</defs>
</svg>
